<mxfile host="app.diagrams.net" modified="2023-04-08T09:03:29.630Z" agent="Mozilla/5.0 (Windows NT 10.0; Win64; x64) AppleWebKit/537.36 (KHTML, like Gecko) Chrome/110.0.0.0 Safari/537.36" etag="gKekoeKSHWqH4s1CpJyj" version="21.1.5" type="github">
  <diagram id="C5RBs43oDa-KdzZeNtuy" name="Page-1">
    <mxGraphModel dx="926" dy="1672" grid="1" gridSize="10" guides="1" tooltips="1" connect="1" arrows="1" fold="1" page="1" pageScale="1" pageWidth="827" pageHeight="1169" math="0" shadow="0">
      <root>
        <mxCell id="WIyWlLk6GJQsqaUBKTNV-0" />
        <mxCell id="WIyWlLk6GJQsqaUBKTNV-1" parent="WIyWlLk6GJQsqaUBKTNV-0" />
        <mxCell id="1EGUt3BdQmfMP07Hlo8H-0" value="index.jsp" style="swimlane;whiteSpace=wrap;html=1;" vertex="1" parent="WIyWlLk6GJQsqaUBKTNV-1">
          <mxGeometry x="50" y="-440" width="200" height="200" as="geometry" />
        </mxCell>
        <mxCell id="1EGUt3BdQmfMP07Hlo8H-1" value="home.jsp" style="swimlane;whiteSpace=wrap;html=1;" vertex="1" parent="WIyWlLk6GJQsqaUBKTNV-1">
          <mxGeometry x="50" y="290" width="200" height="200" as="geometry" />
        </mxCell>
        <mxCell id="1EGUt3BdQmfMP07Hlo8H-13" style="edgeStyle=orthogonalEdgeStyle;rounded=0;orthogonalLoop=1;jettySize=auto;html=1;exitX=0.5;exitY=0;exitDx=0;exitDy=0;entryX=0.5;entryY=1;entryDx=0;entryDy=0;" edge="1" parent="WIyWlLk6GJQsqaUBKTNV-1" source="1EGUt3BdQmfMP07Hlo8H-2" target="1EGUt3BdQmfMP07Hlo8H-7">
          <mxGeometry relative="1" as="geometry" />
        </mxCell>
        <mxCell id="1EGUt3BdQmfMP07Hlo8H-2" value="generalinfo.jsp" style="swimlane;whiteSpace=wrap;html=1;" vertex="1" parent="WIyWlLk6GJQsqaUBKTNV-1">
          <mxGeometry x="300" y="290" width="200" height="200" as="geometry" />
        </mxCell>
        <mxCell id="1EGUt3BdQmfMP07Hlo8H-14" style="edgeStyle=orthogonalEdgeStyle;rounded=0;orthogonalLoop=1;jettySize=auto;html=1;exitX=0.5;exitY=0;exitDx=0;exitDy=0;entryX=0.5;entryY=1;entryDx=0;entryDy=0;" edge="1" parent="WIyWlLk6GJQsqaUBKTNV-1" source="1EGUt3BdQmfMP07Hlo8H-3" target="1EGUt3BdQmfMP07Hlo8H-7">
          <mxGeometry relative="1" as="geometry" />
        </mxCell>
        <mxCell id="1EGUt3BdQmfMP07Hlo8H-3" value="modify.jsp" style="swimlane;whiteSpace=wrap;html=1;" vertex="1" parent="WIyWlLk6GJQsqaUBKTNV-1">
          <mxGeometry x="580" y="290" width="200" height="200" as="geometry" />
        </mxCell>
        <mxCell id="1EGUt3BdQmfMP07Hlo8H-4" value="ahome.jsp" style="swimlane;whiteSpace=wrap;html=1;" vertex="1" parent="WIyWlLk6GJQsqaUBKTNV-1">
          <mxGeometry x="840" y="290" width="200" height="200" as="geometry" />
        </mxCell>
        <mxCell id="1EGUt3BdQmfMP07Hlo8H-17" style="edgeStyle=orthogonalEdgeStyle;rounded=0;orthogonalLoop=1;jettySize=auto;html=1;exitX=0.5;exitY=0;exitDx=0;exitDy=0;entryX=0.5;entryY=1;entryDx=0;entryDy=0;" edge="1" parent="WIyWlLk6GJQsqaUBKTNV-1" source="1EGUt3BdQmfMP07Hlo8H-5" target="1EGUt3BdQmfMP07Hlo8H-7">
          <mxGeometry relative="1" as="geometry" />
        </mxCell>
        <mxCell id="1EGUt3BdQmfMP07Hlo8H-5" value="contactus.jsp" style="swimlane;whiteSpace=wrap;html=1;" vertex="1" parent="WIyWlLk6GJQsqaUBKTNV-1">
          <mxGeometry x="1110" y="290" width="200" height="200" as="geometry" />
        </mxCell>
        <mxCell id="1EGUt3BdQmfMP07Hlo8H-6" value="admin.jsp" style="swimlane;whiteSpace=wrap;html=1;" vertex="1" parent="WIyWlLk6GJQsqaUBKTNV-1">
          <mxGeometry x="1390" y="290" width="200" height="200" as="geometry" />
        </mxCell>
        <mxCell id="1EGUt3BdQmfMP07Hlo8H-12" style="edgeStyle=orthogonalEdgeStyle;rounded=0;orthogonalLoop=1;jettySize=auto;html=1;exitX=0.5;exitY=1;exitDx=0;exitDy=0;entryX=0.452;entryY=-0.009;entryDx=0;entryDy=0;entryPerimeter=0;" edge="1" parent="WIyWlLk6GJQsqaUBKTNV-1" source="1EGUt3BdQmfMP07Hlo8H-7" target="1EGUt3BdQmfMP07Hlo8H-1">
          <mxGeometry relative="1" as="geometry">
            <mxPoint x="140" y="280" as="targetPoint" />
          </mxGeometry>
        </mxCell>
        <mxCell id="1EGUt3BdQmfMP07Hlo8H-16" style="edgeStyle=orthogonalEdgeStyle;rounded=0;orthogonalLoop=1;jettySize=auto;html=1;exitX=0.5;exitY=1;exitDx=0;exitDy=0;entryX=0.5;entryY=0;entryDx=0;entryDy=0;" edge="1" parent="WIyWlLk6GJQsqaUBKTNV-1" source="1EGUt3BdQmfMP07Hlo8H-7" target="1EGUt3BdQmfMP07Hlo8H-4">
          <mxGeometry relative="1" as="geometry" />
        </mxCell>
        <mxCell id="1EGUt3BdQmfMP07Hlo8H-7" value="header.jsp" style="swimlane;whiteSpace=wrap;html=1;startSize=23;" vertex="1" parent="WIyWlLk6GJQsqaUBKTNV-1">
          <mxGeometry x="580" y="-20" width="200" height="200" as="geometry" />
        </mxCell>
        <mxCell id="1EGUt3BdQmfMP07Hlo8H-8" value="loginprocess.jsp" style="swimlane;whiteSpace=wrap;html=1;" vertex="1" parent="WIyWlLk6GJQsqaUBKTNV-1">
          <mxGeometry x="1390" y="560" width="200" height="200" as="geometry" />
        </mxCell>
        <mxCell id="1EGUt3BdQmfMP07Hlo8H-10" value="" style="endArrow=classic;html=1;rounded=0;entryX=0.5;entryY=0;entryDx=0;entryDy=0;exitX=0.5;exitY=1;exitDx=0;exitDy=0;" edge="1" parent="WIyWlLk6GJQsqaUBKTNV-1" source="1EGUt3BdQmfMP07Hlo8H-6" target="1EGUt3BdQmfMP07Hlo8H-8">
          <mxGeometry width="50" height="50" relative="1" as="geometry">
            <mxPoint x="1500" y="490" as="sourcePoint" />
            <mxPoint x="1515" y="500" as="targetPoint" />
            <Array as="points" />
          </mxGeometry>
        </mxCell>
      </root>
    </mxGraphModel>
  </diagram>
</mxfile>
